{"title":"Blue Crush 2 2011 BRRip 720p Dual Audio Hindi English GOPI SAHI","uid":10548592,"size":983359608,"categoryP":"video","categoryS":"hd___movies","magnet":"?xt=urn:btih:47375a4841d68c37774ced943e2e8fec332d9c64&amp;dn=Blue+Crush+2+2011+BRRip+720p+Dual+Audio+Hindi+English+GOPI+SAHI&amp;tr=udp%3A%2F%2Ftracker.openbittorrent.com%3A80&amp;tr=udp%3A%2F%2Fopen.demonii.com%3A1337&amp;tr=udp%3A%2F%2Ftracker.coppersurfer.tk%3A6969&amp;tr=udp%3A%2F%2Fexodus.desync.com%3A6969","seeders":5,"leechers":0,"uploader":"jatt13","files":1,"time":1405312094,"description":"Video\nID                             : 1\nFormat                         : AVC\nFormat/Info                    : Advanced Video Codec\nFormat profile                 : &lt;a class=&quot;__cf_email__&quot; href=&quot;/cdn-cgi/l/email-protection&quot; data-cfemail=&quot;175f7e707f575b233927&quot;&gt;[email&amp;#160;protected]&lt;/a&gt;&lt;script cf-hash='f9e31' type=&quot;text/javascript&quot;&gt;\n/* &lt;![CDATA[ */!function(){try{var t=&quot;currentScript&quot;in document?document.currentScript:function(){for(var t=document.getElementsByTagName(&quot;script&quot;),e=t.length;e--;)if(t[e].getAttribute(&quot;cf-hash&quot;))return t[e]}();if(t&amp;&amp;t.previousSibling){var e,r,n,i,c=t.previousSibling,a=c.getAttribute(&quot;data-cfemail&quot;);if(a){for(e=&quot;&quot;,r=parseInt(a.substr(0,2),16),n=2;a.length-n;n+=2)i=parseInt(a.substr(n,2),16)^r,e+=String.fromCharCode(i);e=document.createTextNode(e),c.parentNode.replaceChild(e,c)}}}catch(u){}}();/* ]]&gt; */&lt;/script&gt;\nFormat settings, CABAC         : Yes\nFormat settings, ReFrames      : 3 frames\nCodec ID                       : V_MPEG4/ISO/AVC\nDuration                       : 1h 52mn\nBit rate                       : 1 013 Kbps\nWidth                          : 1 280 pixels\nHeight                         : 720 pixels\nDisplay aspect ratio           : 16:9\nFrame rate mode                : Constant\nFrame rate                     : 23.976 fps\nColor space                    : YUV\nChroma subsampling             : 4:2:0\nBit depth                      : 8 bits\nScan type                      : Progressive\nBits/(Pixel*Frame)             : 0.046\nStream size                    : 816 MiB (87%)\nTitle                          : GOPI SAHI\nWriting library                : x264 core 104 r1683 62997d6\nLanguage                       : Hindi\nDefault                        : Yes\nForced                         : No\n\nAudio #1\nID                             : 3\nFormat                         : AC-3\nFormat/Info                    : Audio Coding 3\nMode extension                 : CM (complete main)\nFormat settings, Endianness    : Big\nCodec ID                       : A_AC3\nDuration                       : 1h 52mn\nBit rate mode                  : Constant\nBit rate                       : 64.0 Kbps\nChannel(s)                     : 2 channels\nChannel positions              : Front: L R\nSampling rate                  : 48.0 KHz\nBit depth                      : 16 bits\nCompression mode               : Lossy\nStream size                    : 51.6 MiB (5%)\nTitle                          : GOPI SAHI\nLanguage                       : Hindi\nDefault                        : Yes\nForced                         : No\n\nAudio #2\nID                             : 4\nFormat                         : MPEG Audio\nFormat version                 : Version 2\nFormat profile                 : Layer 3\nMode                           : Joint stereo\nMode extension                 : MS Stereo\nCodec ID                       : A_MPEG/L3\nCodec ID/Hint                  : MP3\nDuration                       : 1h 52mn\nBit rate mode                  : Constant\nBit rate                       : 64.0 Kbps\nChannel(s)                     : 2 channels\nSampling rate                  : 24.0 KHz\nCompression mode               : Lossy\nStream size                    : 51.6 MiB (5%)\nTitle                          : GOPI SAHI\nWriting library                : LAME3.96.1\nLanguage                       : English\nDefault                        : No\nForced                         : No\n[IMG]http://i.imgur.com/CJmrkIJ.jpg[/IMG]\n[IMG]http://i.imgur.com/4EFdcQl.jpg[/IMG]\n[IMG]http://i.imgur.com/HMWytcV.jpg[/IMG]\n[IMG]http://i.imgur.com/mT0pchv.jpg[/IMG]\n[IMG]http://i.imgur.com/KMgCUST.jpg[/IMG]","torrent":{"xt":"urn:btih:47375a4841d68c37774ced943e2e8fec332d9c64","amp;dn":"Blue+Crush+2+2011+BRRip+720p+Dual+Audio+Hindi+English+GOPI+SAHI","amp;tr":["udp%3A%2F%2Ftracker.openbittorrent.com%3A80","udp%3A%2F%2Fopen.demonii.com%3A1337","udp%3A%2F%2Ftracker.coppersurfer.tk%3A6969","udp%3A%2F%2Fexodus.desync.com%3A6969"],"infoHash":"47375a4841d68c37774ced943e2e8fec332d9c64","infoHashBuffer":{"type":"Buffer","data":[71,55,90,72,65,214,140,55,119,76,237,148,62,46,143,236,51,45,156,100]},"announce":[],"urlList":[]}}